<mxfile host="app.diagrams.net" modified="2023-01-10T09:36:28.780Z" agent="5.0 (Windows NT 10.0; Win64; x64) AppleWebKit/537.36 (KHTML, like Gecko) Chrome/108.0.0.0 Safari/537.36" version="20.8.3" etag="Ce002chTzQW0NjaoO_3n" type="github">
  <diagram id="nM2uy7ZZOswmcvavsQLf" name="第 1 页">
    <mxGraphModel dx="1221" dy="743" grid="1" gridSize="10" guides="1" tooltips="1" connect="1" arrows="1" fold="1" page="1" pageScale="1" pageWidth="827" pageHeight="1169" math="0" shadow="0">
      <root>
        <mxCell id="0" />
        <mxCell id="1" parent="0" />
        <mxCell id="86IFjRhNm6nDwbe1TuVn-3" value="" style="edgeStyle=orthogonalEdgeStyle;rounded=0;orthogonalLoop=1;jettySize=auto;html=1;" edge="1" parent="1" source="86IFjRhNm6nDwbe1TuVn-1" target="86IFjRhNm6nDwbe1TuVn-2">
          <mxGeometry relative="1" as="geometry" />
        </mxCell>
        <mxCell id="86IFjRhNm6nDwbe1TuVn-1" value="" style="rounded=0;whiteSpace=wrap;html=1;" vertex="1" parent="1">
          <mxGeometry x="220" y="240" width="120" height="60" as="geometry" />
        </mxCell>
        <mxCell id="86IFjRhNm6nDwbe1TuVn-5" value="" style="edgeStyle=orthogonalEdgeStyle;rounded=0;orthogonalLoop=1;jettySize=auto;html=1;" edge="1" parent="1" source="86IFjRhNm6nDwbe1TuVn-2" target="86IFjRhNm6nDwbe1TuVn-4">
          <mxGeometry relative="1" as="geometry" />
        </mxCell>
        <mxCell id="86IFjRhNm6nDwbe1TuVn-2" value="" style="rounded=0;whiteSpace=wrap;html=1;" vertex="1" parent="1">
          <mxGeometry x="420" y="240" width="120" height="60" as="geometry" />
        </mxCell>
        <mxCell id="86IFjRhNm6nDwbe1TuVn-4" value="" style="rounded=0;whiteSpace=wrap;html=1;" vertex="1" parent="1">
          <mxGeometry x="690" y="100" width="310" height="340" as="geometry" />
        </mxCell>
      </root>
    </mxGraphModel>
  </diagram>
</mxfile>
